<?xml version="1.0" encoding="UTF-8" standalone="no"?>
<!DOCTYPE svg PUBLIC "-//W3C//DTD SVG 1.1//EN" "http://www.w3.org/Graphics/SVG/1.1/DTD/svg11.dtd">
<svg version="1.1" xmlns="http://www.w3.org/2000/svg" xmlns:xlink="http://www.w3.org/1999/xlink" preserveAspectRatio="xMidYMid meet" viewBox="0 0 20 20" width="20" height="20"><defs><path d="M157.84 140.73C157.84 146.25 153.43 150.73 147.99 150.73C142.55 150.73 138.14 146.25 138.14 140.73C138.14 135.21 142.55 130.73 147.99 130.73C153.43 130.73 157.84 135.21 157.84 140.73Z" id="hEZVljk6Z"></path><path d="M20 10C20 15.52 15.52 20 10 20C4.48 20 0 15.52 0 10C0 4.48 4.48 0 10 0C15.52 0 20 4.48 20 10Z" id="cvoeoVVfr"></path><clipPath id="clipeyp5TzXrK"><use xlink:href="#cvoeoVVfr" opacity="1"></use></clipPath><path d="M13.18 5.63L14.6 7.05L6.82 14.82L5.4 13.41L13.18 5.63Z" id="b7nSblfX7"></path><path d="M5.4 7.05L6.82 5.63L14.6 13.41L13.18 14.82L5.4 7.05Z" id="dKPLEdWx2"></path></defs><g><g><g><use xlink:href="#hEZVljk6Z" opacity="1" fill="#2ba0ba" fill-opacity="1"></use></g><g><use xlink:href="#cvoeoVVfr" opacity="1" fill="#e794dd" fill-opacity="0"></use><g clip-path="url(#clipeyp5TzXrK)"><use xlink:href="#cvoeoVVfr" opacity="1" fill-opacity="0" stroke="#e26868" stroke-width="4" stroke-opacity="1"></use></g></g><g><use xlink:href="#b7nSblfX7" opacity="1" fill="#e26868" fill-opacity="0.99"></use><g><use xlink:href="#b7nSblfX7" opacity="1" fill-opacity="0" stroke="#e26868" stroke-width="0" stroke-opacity="1"></use></g></g><g><use xlink:href="#dKPLEdWx2" opacity="1" fill="#e26868" fill-opacity="0.99"></use><g><use xlink:href="#dKPLEdWx2" opacity="1" fill-opacity="0" stroke="#ffc631" stroke-width="0" stroke-opacity="1"></use></g></g></g></g></svg>