<?xml version="1.0" encoding="UTF-8" standalone="no"?>
<!DOCTYPE svg PUBLIC "-//W3C//DTD SVG 1.1//EN" "http://www.w3.org/Graphics/SVG/1.1/DTD/svg11.dtd">
<svg version="1.1" xmlns="http://www.w3.org/2000/svg" xmlns:xlink="http://www.w3.org/1999/xlink" preserveAspectRatio="xMidYMid meet" viewBox="0 0 20 20" width="20" height="20"><defs><path d="M157.84 140.73C157.84 146.25 153.43 150.73 147.99 150.73C142.55 150.73 138.14 146.25 138.14 140.73C138.14 135.21 142.55 130.73 147.99 130.73C153.43 130.73 157.84 135.21 157.84 140.73Z" id="d30ChCZe77"></path><path d="M20 10C20 15.52 15.52 20 10 20C4.48 20 0 15.52 0 10C0 4.48 4.48 0 10 0C15.52 0 20 4.48 20 10Z" id="eE3zLQn8q"></path><clipPath id="clipa1hZxOuL6Y"><use xlink:href="#eE3zLQn8q" opacity="1"></use></clipPath><path d="M7 7L9 7L9 14L7 14L7 7Z" id="a1bgVTn2Sp"></path><path d="M11 7L13 7L13 14L11 14L11 7Z" id="b2L9zbLLFJ"></path></defs><g><g><g><use xlink:href="#d30ChCZe77" opacity="1" fill="#2ba0ba" fill-opacity="1"></use></g><g><use xlink:href="#eE3zLQn8q" opacity="1" fill="#e794dd" fill-opacity="0"></use><g clip-path="url(#clipa1hZxOuL6Y)"><use xlink:href="#eE3zLQn8q" opacity="1" fill-opacity="0" stroke="#dcaa28" stroke-width="4" stroke-opacity="1"></use></g></g><g><use xlink:href="#a1bgVTn2Sp" opacity="1" fill="#dcaa28" fill-opacity="0.99"></use><g><use xlink:href="#a1bgVTn2Sp" opacity="1" fill-opacity="0" stroke="#ffc631" stroke-width="0" stroke-opacity="1"></use></g></g><g><use xlink:href="#b2L9zbLLFJ" opacity="1" fill="#dcaa28" fill-opacity="0.99"></use><g><use xlink:href="#b2L9zbLLFJ" opacity="1" fill-opacity="0" stroke="#ffc631" stroke-width="0" stroke-opacity="1"></use></g></g></g></g></svg>