<?xml version="1.0" encoding="UTF-8" standalone="no"?>
<!DOCTYPE svg PUBLIC "-//W3C//DTD SVG 1.1//EN" "http://www.w3.org/Graphics/SVG/1.1/DTD/svg11.dtd">
<svg version="1.1" xmlns="http://www.w3.org/2000/svg" xmlns:xlink="http://www.w3.org/1999/xlink" preserveAspectRatio="xMidYMid meet" viewBox="0 0 20 20" width="20" height="20"><defs><path d="M157.84 140.73C157.84 146.25 153.43 150.73 147.99 150.73C142.55 150.73 138.14 146.25 138.14 140.73C138.14 135.21 142.55 130.73 147.99 130.73C153.43 130.73 157.84 135.21 157.84 140.73Z" id="a2pBxgWmQn"></path><path d="M20 10C20 15.52 15.52 20 10 20C4.48 20 0 15.52 0 10C0 4.48 4.48 0 10 0C15.52 0 20 4.48 20 10Z" id="a4UDG9hY7n"></path><clipPath id="clipb1DYxaKd80"><use xlink:href="#a4UDG9hY7n" opacity="1"></use></clipPath><path d="M7 10C7 10.83 6.33 11.5 5.5 11.5C4.68 11.5 4 10.83 4 10C4 9.17 4.68 8.5 5.5 8.5C6.33 8.5 7 9.17 7 10Z" id="b2aQHeeBbT"></path><path d="M16 10C16 10.83 15.33 11.5 14.5 11.5C13.67 11.5 13 10.83 13 10C13 9.17 13.67 8.5 14.5 8.5C15.33 8.5 16 9.17 16 10Z" id="d64DLlCZH"></path><path d="M11.5 10C11.5 10.83 10.83 11.5 10 11.5C9.17 11.5 8.5 10.83 8.5 10C8.5 9.17 9.17 8.5 10 8.5C10.83 8.5 11.5 9.17 11.5 10Z" id="fgc6cz7tE"></path></defs><g><g><g><use xlink:href="#a2pBxgWmQn" opacity="1" fill="#2ba0ba" fill-opacity="1"></use></g><g><use xlink:href="#a4UDG9hY7n" opacity="1" fill="#e794dd" fill-opacity="0"></use><g clip-path="url(#clipb1DYxaKd80)"><use xlink:href="#a4UDG9hY7n" opacity="1" fill-opacity="0" stroke="#4cc47e" stroke-width="4" stroke-opacity="1"></use></g></g><g><use xlink:href="#b2aQHeeBbT" opacity="1" fill="#4cc47e" fill-opacity="0.99"></use></g><g><use xlink:href="#d64DLlCZH" opacity="1" fill="#4cc47e" fill-opacity="0.99"></use></g><g><use xlink:href="#fgc6cz7tE" opacity="1" fill="#4cc47e" fill-opacity="0.99"></use></g></g></g></svg>